<?xml version="1.0" standalone="no"?>
<!DOCTYPE svg PUBLIC "-//W3C//DTD SVG 20010904//EN"
 "http://www.w3.org/TR/2001/REC-SVG-20010904/DTD/svg10.dtd">
<svg version="1.0" xmlns="http://www.w3.org/2000/svg"
 width="1024.000000pt" height="1024.000000pt" viewBox="0 0 1024.000000 1024.000000"
 preserveAspectRatio="xMidYMid meet">

<g transform="translate(0.000000,1024.000000) scale(0.100000,-0.100000)"
fill="#000000" stroke="none">
<path d="M5029 8350 c-134 -21 -274 -98 -349 -192 -42 -53 -93 -153 -104 -204
-7 -30 -9 -31 -139 -63 -332 -82 -709 -259 -973 -457 -390 -293 -694 -668
-880 -1084 -254 -571 -312 -1260 -152 -1813 l31 -108 -24 -16 c-87 -58 -184
-208 -208 -321 -16 -76 -14 -200 5 -263 68 -233 262 -397 489 -415 64 -5 114
2 232 32 18 5 47 -19 170 -143 246 -249 466 -409 768 -558 205 -101 320 -144
519 -195 295 -75 477 -95 791 -87 177 4 250 10 375 32 384 67 742 208 1056
417 185 123 329 242 494 409 l135 136 55 -19 c212 -74 465 17 601 217 70 103
91 162 96 280 9 176 -45 314 -168 430 l-69 64 35 127 c95 346 109 771 39 1153
-65 355 -183 659 -378 974 -281 454 -743 850 -1236 1061 -187 79 -323 122
-547 171 -15 4 -26 19 -38 57 -55 170 -205 314 -375 362 -72 20 -181 27 -251
16z m211 -292 c247 -115 235 -453 -19 -549 -150 -56 -337 32 -387 183 -22 66
-15 177 14 233 30 58 91 112 158 141 76 32 155 29 234 -8z m-652 -477 c84
-217 295 -361 527 -361 164 0 285 50 401 165 56 55 80 89 114 160 24 50 44 91
45 92 1 2 52 -11 113 -27 152 -41 299 -99 469 -186 498 -253 869 -625 1112
-1114 122 -245 199 -489 238 -746 25 -171 25 -556 0 -709 -18 -105 -52 -280
-63 -317 -5 -15 -18 -18 -82 -18 -155 0 -285 -53 -392 -160 -107 -106 -160
-234 -160 -382 0 -115 39 -236 105 -324 l24 -31 -92 -98 c-368 -396 -864 -667
-1377 -754 -560 -95 -1113 -12 -1599 240 -241 125 -420 258 -629 466 l-142
142 40 57 c61 88 82 152 88 276 5 125 -14 204 -73 303 -98 164 -249 252 -450
264 l-100 6 -22 89 c-53 208 -78 513 -63 743 32 467 162 861 408 1235 271 409
683 743 1148 928 106 43 339 115 379 119 6 1 20 -26 33 -58z m-1686 -3340
c103 -53 159 -136 166 -246 16 -263 -286 -417 -481 -245 -113 99 -136 265 -54
387 33 50 107 106 161 123 51 16 159 6 208 -19z m4656 14 c73 -22 154 -99 182
-173 44 -116 9 -262 -81 -333 -63 -49 -117 -69 -194 -69 -265 0 -395 318 -206
504 80 79 187 104 299 71z"/>
<path d="M4562 6757 c-51 -29 -57 -50 -60 -228 l-4 -167 -111 -3 c-98 -4 -119
-8 -168 -32 -63 -31 -126 -93 -160 -159 -19 -35 -24 -63 -27 -150 l-4 -108
-173 0 c-163 0 -174 -1 -206 -23 -22 -14 -39 -38 -48 -64 -14 -38 -13 -45 4
-83 34 -76 32 -76 358 -79 l68 -1 -3 -127 -3 -128 -186 -5 c-209 -6 -219 -9
-240 -80 -14 -46 0 -96 37 -131 25 -23 31 -24 210 -27 l185 -3 -3 -130 -3
-129 -175 -3 c-198 -2 -219 -9 -247 -74 -19 -47 -10 -95 27 -136 l28 -32 184
-5 183 -5 5 -100 c7 -117 26 -170 91 -240 73 -79 170 -115 309 -115 l70 0 0
-156 c0 -178 9 -212 65 -238 41 -20 78 -20 115 -1 56 29 60 44 60 227 l0 168
130 0 130 0 0 -161 c0 -180 7 -206 66 -234 41 -19 68 -19 110 1 57 27 64 52
64 234 l0 160 130 0 130 0 0 -162 c0 -144 2 -166 19 -192 36 -55 90 -69 156
-42 57 24 65 54 65 234 l0 159 103 5 c89 4 113 9 169 35 134 63 198 162 207
323 l6 95 177 5 c170 5 177 6 202 29 54 51 52 132 -5 187 l-30 29 -175 3 -174
4 0 129 0 129 169 0 c159 0 170 1 202 23 44 29 63 84 49 136 -19 72 -30 75
-234 81 l-181 5 -3 128 -3 127 93 1 c225 3 254 6 279 23 34 21 49 57 49 111 0
35 -6 52 -29 77 l-29 33 -180 3 -180 3 -4 97 c-5 122 -33 187 -113 261 -77 70
-139 91 -265 91 l-100 0 0 163 c0 144 -2 166 -20 195 -11 18 -32 37 -46 42
-38 15 -97 12 -122 -6 -45 -31 -52 -62 -52 -234 l0 -160 -130 0 -130 0 0 160
c0 178 -8 208 -60 235 -38 20 -100 19 -129 -1 -42 -30 -51 -71 -51 -239 l0
-155 -130 0 -130 0 0 171 0 171 -34 34 c-28 28 -41 34 -77 34 -24 -1 -54 -6
-67 -13z m1375 -690 l28 -27 3 -753 c2 -538 -1 -760 -9 -779 -6 -15 -23 -35
-38 -45 -24 -17 -71 -18 -798 -18 -767 0 -772 0 -800 21 -15 11 -33 36 -40 55
-16 45 -18 1445 -2 1502 7 26 21 44 42 58 31 19 53 19 809 17 l778 -3 27 -28z"/>
<path d="M4719 5687 c-59 -39 -59 -40 -59 -420 0 -385 2 -400 62 -437 31 -19
50 -20 393 -20 342 0 362 1 393 20 18 11 41 34 52 52 19 31 20 51 20 376 0
381 -2 395 -64 433 -29 18 -57 19 -397 19 -364 0 -366 0 -400 -23z m611 -427
l0 -200 -210 0 -210 0 0 200 0 200 210 0 210 0 0 -200z"/>
</g>
</svg>
